<svg width="64" height="64" viewBox="0 0 64 64" fill="none" xmlns="http://www.w3.org/2000/svg" role="img" aria-label="HairMirra mirrored RR mark">
  <defs>
    <radialGradient id="bgGlow" cx="50%" cy="42%" r="62%">
      <stop stop-color="#1E1B16"/>
      <stop offset="0.62" stop-color="#0F0E0B"/>
      <stop offset="1" stop-color="#050504"/>
    </radialGradient>
    <linearGradient id="gold" x1="9" y1="12" x2="56" y2="55" gradientUnits="userSpaceOnUse">
      <stop offset="0" stop-color="#FFEFC2"/>
      <stop offset="0.18" stop-color="#C99334"/>
      <stop offset="0.38" stop-color="#FFF7D8"/>
      <stop offset="0.58" stop-color="#E7B65A"/>
      <stop offset="0.78" stop-color="#8F5A1A"/>
      <stop offset="1" stop-color="#F8D990"/>
    </linearGradient>
    <linearGradient id="edge" x1="12" y1="11" x2="51" y2="52" gradientUnits="userSpaceOnUse">
      <stop stop-color="#FFFFFF"/>
      <stop offset="0.42" stop-color="#F6D58A"/>
      <stop offset="1" stop-color="#7C4D17"/>
    </linearGradient>
    <linearGradient id="shine" x1="32" y1="11" x2="32" y2="52" gradientUnits="userSpaceOnUse">
      <stop stop-color="#FFFFFF" stop-opacity="0.9"/>
      <stop offset="0.5" stop-color="#F6D58A" stop-opacity="0.32"/>
      <stop offset="1" stop-color="#FFFFFF" stop-opacity="0.06"/>
    </linearGradient>
    <filter id="cast" x="-14%" y="-14%" width="128%" height="128%" color-interpolation-filters="sRGB">
      <feDropShadow dx="0" dy="2" stdDeviation="1.15" flood-color="#000000" flood-opacity="0.72"/>
      <feDropShadow dx="0" dy="0" stdDeviation="1.35" flood-color="#E8B756" flood-opacity="0.2"/>
    </filter>
  </defs>

  <rect x="2.5" y="2.5" width="59" height="59" rx="14" fill="url(#bgGlow)"/>
  <rect x="3.25" y="3.25" width="57.5" height="57.5" rx="13.25" stroke="#E8B756" stroke-opacity="0.26" stroke-width="1.5"/>

  <g filter="url(#cast)" stroke-linecap="round" stroke-linejoin="round">
    <g stroke="#4A2D0E" stroke-width="6.4" opacity="0.72">
      <path d="M28.7 13.8V50.8"/>
      <path d="M35.3 13.8V50.8"/>
      <path d="M28.7 14.5H16C11.1 14.5 8.8 17.4 8.8 22.3C8.8 27.2 11.8 30.1 17.6 30.1H28.7"/>
      <path d="M17.4 30.8C14.8 37.2 11.8 43.8 9.8 49.4"/>
      <path d="M35.3 14.5H48C52.9 14.5 55.2 17.4 55.2 22.3C55.2 27.2 52.2 30.1 46.4 30.1H35.3"/>
      <path d="M46.6 30.8C49.2 37.2 52.2 43.8 54.2 49.4"/>
    </g>

    <g stroke="url(#gold)" stroke-width="4.8">
      <path d="M28.7 13.8V50.8"/>
      <path d="M35.3 13.8V50.8"/>
      <path d="M28.7 14.5H16C11.1 14.5 8.8 17.4 8.8 22.3C8.8 27.2 11.8 30.1 17.6 30.1H28.7"/>
      <path d="M17.4 30.8C14.8 37.2 11.8 43.8 9.8 49.4"/>
      <path d="M35.3 14.5H48C52.9 14.5 55.2 17.4 55.2 22.3C55.2 27.2 52.2 30.1 46.4 30.1H35.3"/>
      <path d="M46.6 30.8C49.2 37.2 52.2 43.8 54.2 49.4"/>
    </g>

    <g stroke="url(#edge)" stroke-width="1.1" opacity="0.88">
      <path d="M28.7 13.8V50.8"/>
      <path d="M35.3 13.8V50.8"/>
      <path d="M28.7 14.5H16C11.1 14.5 8.8 17.4 8.8 22.3C8.8 27.2 11.8 30.1 17.6 30.1H28.7"/>
      <path d="M17.4 30.8C14.8 37.2 11.8 43.8 9.8 49.4"/>
      <path d="M35.3 14.5H48C52.9 14.5 55.2 17.4 55.2 22.3C55.2 27.2 52.2 30.1 46.4 30.1H35.3"/>
      <path d="M46.6 30.8C49.2 37.2 52.2 43.8 54.2 49.4"/>
    </g>
  </g>

  <path d="M32 11.8V52.2" stroke="url(#shine)" stroke-width="0.9" stroke-linecap="round"/>
  <path d="M13.5 11.8C23.8 8.8 40.2 8.8 50.5 11.8" stroke="#FFF2C7" stroke-opacity="0.22" stroke-width="1.2" stroke-linecap="round"/>
  <path d="M8.8 52.7H55.2" stroke="#E8B756" stroke-opacity="0.2" stroke-width="1" stroke-linecap="round"/>
</svg>
